<svg width="512.001" height="512.001" xmlns="http://www.w3.org/2000/svg">

 <g>
  <title>background</title>
  <rect fill="none" id="canvas_background" height="402" width="582" y="-1" x="-1"/>
 </g>
 <g>
  <title>Layer 1</title>
  <g id="svg_1">
   <g id="svg_2">
    <path fill="#ffffff" id="svg_3" d="m505.327,181.146c-0.361,-1.242 -0.951,-2.424 -1.778,-3.466l-29.148,-36.68c-3.468,-4.362 -9.813,-5.091 -14.178,-1.622c-4.362,3.467 -5.089,9.815 -1.622,14.178l20.129,25.331l-73.006,23.944l-139.559,-101.396l0.218,-76.953l126.187,45.98l26.963,33.931c3.468,4.362 9.813,5.09 14.178,1.622c4.362,-3.467 5.089,-9.815 1.622,-14.178l-28.734,-36.159c-1.157,-1.457 -2.696,-2.565 -4.445,-3.203l-142.366,-51.875c-1.227,-0.447 -2.508,-0.636 -3.777,-0.594c-1.269,-0.041 -2.551,0.147 -3.778,0.594l-142.377,51.875c-1.748,0.637 -3.287,1.745 -4.445,3.203l-96.939,121.993c-0.802,1.009 -1.383,2.147 -1.748,3.346c-0.443,1.178 -0.677,2.44 -0.653,3.732l2.714,147.825c0.035,1.923 0.62,3.797 1.684,5.398l88.695,133.508c0.732,1.102 1.667,2.022 2.731,2.747c1.117,0.87 2.409,1.522 3.826,1.863l147.906,35.629c0.777,0.188 1.57,0.28 2.363,0.28c0.793,0 1.586,-0.094 2.363,-0.28l147.906,-35.629c1.356,-0.326 2.597,-0.936 3.681,-1.75c1.131,-0.739 2.126,-1.693 2.895,-2.851l88.695,-133.507c1.065,-1.601 1.649,-3.474 1.684,-5.398l2.714,-147.825c0.025,-1.247 -0.188,-2.469 -0.601,-3.613zm-249.337,-61.936l136.044,98.836l-51.956,159.934l-168.166,0l-51.966,-159.934l136.044,-98.836zm-136.55,-48.748l126.196,-45.979l0.209,76.943l-139.558,101.398l-72.998,-23.945l86.151,-108.417zm-90.532,258.797l-2.401,-130.764l73.493,23.65l53.308,164.066l-45.344,62.046l-79.056,-118.998zm227.082,162.272l-130.917,-31.537l44.666,-61.833l172.511,0l44.659,61.833l-130.919,31.537zm227.102,-162.261l-79.056,118.997l-45.344,-62.046l53.308,-164.056l73.494,-23.657l-2.402,130.762z"/>
   </g>
  </g>
  <g id="svg_4">
   <g id="svg_5">
    <path fill="#ffffff" id="svg_6" d="m282.317,263.412c7.997,-7.198 13.036,-17.621 13.036,-29.202c0,-21.666 -17.627,-39.291 -39.292,-39.291s-39.291,17.626 -39.291,39.291c0,11.581 5.038,22.004 13.035,29.202c-7.997,7.198 -13.035,17.621 -13.035,29.202c0,21.661 17.626,39.283 39.291,39.283s39.292,-17.622 39.292,-39.283c0,-11.581 -5.04,-22.004 -13.036,-29.202zm-26.258,-48.312c10.537,0 19.111,8.573 19.111,19.11s-8.574,19.111 -19.111,19.111c-10.537,0 -19.11,-8.574 -19.11,-19.111s8.573,-19.11 19.11,-19.11zm0.001,96.616c-10.537,0 -19.11,-8.569 -19.11,-19.102c0,-10.537 8.573,-19.11 19.11,-19.11c10.537,0 19.111,8.573 19.111,19.11c0.001,10.532 -8.573,19.102 -19.111,19.102z"/>
   </g>
  </g>
  <g id="svg_7">
   <g id="svg_8">
    <path fill="#ffffff" id="svg_9" d="m248.845,444.345c-5.115,0 -9.342,3.806 -10.001,8.741c-1.246,0.975 -4.965,2.721 -10.877,2.721c-5.105,0 -8.573,-1.303 -10.228,-2.286c3.465,-5.971 19.617,-18.601 36.099,-27.996c3.978,-2.265 5.933,-6.925 4.762,-11.352c-1.172,-4.426 -5.176,-7.507 -9.754,-7.507l-41.754,0c-5.572,0 -10.09,4.519 -10.09,10.09c0,5.572 4.518,10.091 10.09,10.091l8.923,0c-13.094,10.572 -19.013,19.228 -19.013,27.587c0,12.288 13.312,21.553 30.967,21.553s30.968,-9.266 30.968,-21.553c-0.002,-5.57 -4.52,-10.089 -10.092,-10.089z"/>
   </g>
  </g>
  <g id="svg_10">
   <g id="svg_11">
    <path fill="#ffffff" id="svg_12" d="m392.206,101.089c-2.357,-4.88 -6.489,-9.587 -11.647,-13.264c-12.769,-9.071 -27.298,-9.047 -33.794,0.054c-3.237,4.536 -2.185,10.837 2.352,14.074c3.945,2.816 9.226,2.384 12.664,-0.758c1.371,0.14 4.053,0.923 7.079,3.073c2.065,1.471 3.473,2.998 4.346,4.216c-6.457,1.774 -21.634,2.215 -35.434,0.826c-4.555,-0.46 -8.849,2.203 -10.46,6.487c-1.612,4.284 -0.138,9.117 3.592,11.773l28.374,20.202c1.775,1.263 3.819,1.871 5.843,1.871c3.154,0 6.26,-1.474 8.229,-4.239c3.232,-4.54 2.171,-10.84 -2.368,-14.072l-2.347,-1.671c11.821,-1.258 19.061,-4.421 22.931,-9.857c3.668,-5.143 3.901,-11.963 0.64,-18.715z"/>
   </g>
  </g>
  <g id="svg_13">
   <g id="svg_14">
    <path fill="#ffffff" id="svg_15" d="m107.494,279.442l-3.441,-9.535c-0.001,-0.003 -0.002,-0.006 -0.003,-0.009c-4.609,-12.735 -18.721,-19.359 -31.463,-14.764l-16.029,5.789c-6.177,2.228 -11.116,6.728 -13.906,12.674c-2.789,5.941 -3.098,12.613 -0.87,18.789l3.441,9.539c2.229,6.172 6.729,11.108 12.673,13.897c3.32,1.558 6.867,2.342 10.425,2.342c2.817,0.001 5.643,-0.49 8.368,-1.477l16.028,-5.79c6.176,-2.227 11.116,-6.726 13.906,-12.671c2.792,-5.944 3.099,-12.615 0.871,-18.784zm-19.137,10.205c-0.289,0.615 -0.995,1.727 -2.489,2.265l-16.04,5.794c-1.486,0.538 -2.741,0.135 -3.357,-0.153c-0.615,-0.29 -1.728,-0.996 -2.264,-2.48l-3.439,-9.534c-0.539,-1.493 -0.134,-2.752 0.154,-3.367c0.289,-0.615 0.995,-1.726 2.489,-2.265l16.029,-5.789c0.49,-0.178 0.992,-0.261 1.486,-0.261c1.801,0 3.498,1.116 4.147,2.908l3.44,9.531c0.536,1.484 0.132,2.738 -0.156,3.351z"/>
   </g>
  </g>
  <g id="svg_16">
   <g id="svg_17">
    <path fill="#ffffff" id="svg_18" d="m338.812,436.227c-2.816,-4.808 -8.999,-6.428 -13.807,-3.607l-26.575,15.564l0,-31.315c0,-5.572 -4.519,-10.09 -10.091,-10.09c-5.572,0 -10.09,4.518 -10.09,10.09l0,48.918c0,3.616 1.935,6.956 5.073,8.755c1.554,0.891 3.286,1.336 5.018,1.336c1.763,0 3.525,-0.461 5.1,-1.383l41.765,-24.459c4.809,-2.818 6.423,-9 3.607,-13.809z"/>
   </g>
  </g>
  <g id="svg_19">
   <g id="svg_20">
    <path fill="#ffffff" id="svg_21" d="m125.88,327.885c-1.891,-5.241 -7.674,-7.955 -12.917,-6.065l-43.096,15.56c-3.401,1.228 -5.886,4.182 -6.512,7.744c-0.626,3.562 0.702,7.186 3.482,9.501l34.832,29c1.886,1.57 4.175,2.335 6.451,2.335c2.892,0.001 5.764,-1.237 7.759,-3.634c3.566,-4.282 2.985,-10.645 -1.298,-14.211l-21.3,-17.733l26.535,-9.58c5.242,-1.892 7.957,-7.675 6.064,-12.917z"/>
   </g>
  </g>
  <g id="svg_22">
   <g id="svg_23">
    <path fill="#ffffff" id="svg_24" d="m188.966,115.715l-15.346,-18.794c-0.012,-0.015 -0.022,-0.032 -0.035,-0.047c-0.012,-0.015 -0.027,-0.028 -0.039,-0.043l-15.337,-18.785c-3.525,-4.318 -9.884,-4.958 -14.197,-1.433c-4.317,3.525 -4.957,9.882 -1.433,14.197l8.994,11.016l-16.519,13.491l-9.005,-11.019c-3.527,-4.315 -9.883,-4.953 -14.198,-1.428c-4.315,3.527 -4.954,9.884 -1.428,14.198l15.388,18.829c1.995,2.441 4.895,3.705 7.819,3.705c2.244,0 4.503,-0.745 6.376,-2.275l24.33,-19.87l8.997,11.019c1.996,2.444 4.897,3.71 7.823,3.71c2.244,0 4.501,-0.744 6.374,-2.273c4.316,-3.525 4.959,-9.881 1.436,-14.198z"/>
   </g>
  </g>
  <g id="svg_25">
   <g id="svg_26">
    <path fill="#ffffff" id="svg_27" d="m451.639,301.436c-5.223,-1.968 -11.037,0.674 -12.998,5.888l-5.733,15.23l-17.88,-32.329c-2.697,-4.877 -8.835,-6.641 -13.714,-3.947c-4.877,2.697 -6.644,8.837 -3.946,13.714l28.455,51.45c1.786,3.228 5.177,5.207 8.827,5.207c0.244,0 0.488,-0.009 0.736,-0.026c3.924,-0.286 7.326,-2.826 8.711,-6.508l13.431,-35.679c1.962,-5.217 -0.675,-11.038 -5.889,-13z"/>
   </g>
  </g>
  <g id="svg_28">
   <g id="svg_29">
    <path fill="#ffffff" id="svg_30" d="m446.709,112.005c-12.985,0 -13.007,20.181 0,20.181c12.986,0 13.007,-20.181 0,-20.181z"/>
   </g>
  </g>
  <g id="svg_31"/>
  <g id="svg_32"/>
  <g id="svg_33"/>
  <g id="svg_34"/>
  <g id="svg_35"/>
  <g id="svg_36"/>
  <g id="svg_37"/>
  <g id="svg_38"/>
  <g id="svg_39"/>
  <g id="svg_40"/>
  <g id="svg_41"/>
  <g id="svg_42"/>
  <g id="svg_43"/>
  <g id="svg_44"/>
  <g id="svg_45"/>
 </g>
</svg>