<?xml version="1.0" encoding="iso-8859-1"?>
<!-- Generator: Adobe Illustrator 17.1.0, SVG Export Plug-In . SVG Version: 6.00 Build 0)  -->
<!DOCTYPE svg PUBLIC "-//W3C//DTD SVG 1.1//EN" "http://www.w3.org/Graphics/SVG/1.1/DTD/svg11.dtd">
<svg version="1.1" id="Capa_1" xmlns="http://www.w3.org/2000/svg" xmlns:xlink="http://www.w3.org/1999/xlink" x="0px" y="0px"
	 viewBox="0 0 465 465" style="enable-background:new 0 0 465 465;" xml:space="preserve">
<g>
	<path d="M380.033,138.538C340.434,80.09,286.63,28.646,236.108,0.925c-2.246-1.233-4.968-1.233-7.215,0
		C178.37,28.646,124.566,80.09,84.968,138.538C32.289,216.291,4.445,305.363,4.445,396.123c0,3.368,2.245,6.323,5.489,7.226
		l220.555,61.377c0.658,0.183,1.334,0.274,2.011,0.274s1.353-0.091,2.011-0.274l220.555-61.377c3.244-0.903,5.489-3.858,5.489-7.226
		C460.555,305.363,432.711,216.291,380.033,138.538z M232.5,449.715l-213.018-59.28c2.47-187.533,126.87-325.184,213.018-374.34
		c86.147,49.157,210.547,186.807,213.018,374.34L232.5,449.715z"/>
	<path d="M239.077,241.794c-1.316-2.401-3.837-3.895-6.576-3.895c-2.739,0-5.26,1.493-6.577,3.895l-12.473,22.751
		c-1.991,3.632-0.661,8.191,2.971,10.182c3.633,1.991,8.19,0.661,10.182-2.971l5.896-10.755l5.896,10.755
		c1.363,2.488,3.933,3.896,6.583,3.896c1.219,0,2.455-0.298,3.599-0.925c3.632-1.991,4.962-6.55,2.971-10.182L239.077,241.794z"/>
	<path d="M341.532,169.826c-1.447-2.36-2.883-4.663-4.298-6.875c-35.796-55.957-74.347-89.802-100.384-108.34
		c-2.605-1.854-6.097-1.855-8.701,0c-26.038,18.539-64.589,52.384-100.384,108.34c-1.412,2.207-2.845,4.504-4.288,6.859
		c-0.031,0.05-0.063,0.1-0.093,0.151c-14.096,23.015-29.462,53.034-41.602,89.214c-0.131,0.298-0.251,0.603-0.344,0.923
		c-0.041,0.139-0.067,0.279-0.099,0.418c-8.392,25.282-15.193,53.528-18.875,84.476c-0.008,0.068-0.02,0.135-0.026,0.204
		c-0.66,5.57-1.223,11.222-1.672,16.964c-0.323,4.129,2.763,7.739,6.892,8.062c4.134,0.322,7.739-2.763,8.062-6.892
		c0.261-3.34,0.574-6.639,0.911-9.919h62.544c4.142,0,7.5-3.358,7.5-7.5s-3.358-7.5-7.5-7.5H78.445
		c3.375-24.144,8.688-46.512,15.123-66.962l57.261,16.707l5.242,28.246c0.001,0.003,0.001,0.006,0.002,0.01l10.013,53.955
		c0.659,3.554,3.76,6.131,7.374,6.131h118.082c3.614,0,6.715-2.578,7.374-6.131l15.257-82.21l57.26-16.706
		c6.436,20.451,11.748,42.818,15.123,66.962h-59.747c-4.143,0-7.5,3.358-7.5,7.5s3.357,7.5,7.5,7.5h61.559
		c0.336,3.28,0.649,6.579,0.91,9.919c0.308,3.931,3.593,6.916,7.47,6.916c0.196,0,0.394-0.008,0.593-0.023
		c4.13-0.323,7.215-3.933,6.893-8.062c-0.449-5.743-1.013-11.397-1.673-16.968c-0.006-0.063-0.016-0.125-0.024-0.188
		c-3.682-30.948-10.482-59.195-18.873-84.477c-0.033-0.143-0.06-0.286-0.102-0.429c-0.094-0.323-0.215-0.63-0.347-0.929
		c-12.142-36.185-27.511-66.207-41.608-89.222C341.582,169.906,341.557,169.866,341.532,169.826z M285.305,361.498H179.696
		l-7.256-39.101h17.183v7.962c0,4.142,3.358,7.5,7.5,7.5s7.5-3.358,7.5-7.5v-7.962H225v7.962c0,4.142,3.358,7.5,7.5,7.5
		c4.143,0,7.5-3.358,7.5-7.5v-7.962h20.378v7.962c0,4.142,3.357,7.5,7.5,7.5s7.5-3.358,7.5-7.5v-7.962h17.183L285.305,361.498z
		 M305.539,275.049c-2.718,0.792-4.757,3.048-5.273,5.831l-4.921,26.517h-19.967v-7.095c0-4.142-3.357-7.5-7.5-7.5
		s-7.5,3.358-7.5,7.5v7.095H240v-7.095c0-4.142-3.357-7.5-7.5-7.5c-4.142,0-7.5,3.358-7.5,7.5v7.095h-20.378v-7.095
		c0-4.142-3.358-7.5-7.5-7.5s-7.5,3.358-7.5,7.5v7.095h-19.966l-4.921-26.517c-0.517-2.783-2.556-5.039-5.273-5.831l-61.138-17.837
		c10.401-29.34,22.895-54.264,34.726-74.233l66.715,24.282c-6.387,10.109-17.625,16.492-29.886,16.492c-0.104,0-0.208,0-0.312-0.001
		c-4.102-0.028-7.53,3.291-7.566,7.433c-0.037,4.142,3.292,7.529,7.433,7.566c0.149,0.001,0.296,0.002,0.445,0.002
		c21.1,0,40.074-13.269,47.304-33.134c1.417-3.892-0.59-8.196-4.483-9.613l-71.593-26.057
		c32.344-50.241,66.786-81.733,91.393-99.958c24.607,18.225,59.048,49.716,91.393,99.958L252.3,196.006
		c-3.892,1.417-5.899,5.721-4.482,9.613c7.23,19.866,26.203,33.134,47.304,33.134c0.148,0,0.297,0,0.445-0.002
		c4.142-0.037,7.47-3.424,7.434-7.566c-0.037-4.142-3.448-7.48-7.566-7.433c-12.358,0.141-23.757-6.296-30.197-16.491l66.715-24.282
		c11.831,19.969,24.325,44.893,34.726,74.234L305.539,275.049z"/>
</g>
<g>
</g>
<g>
</g>
<g>
</g>
<g>
</g>
<g>
</g>
<g>
</g>
<g>
</g>
<g>
</g>
<g>
</g>
<g>
</g>
<g>
</g>
<g>
</g>
<g>
</g>
<g>
</g>
<g>
</g>
</svg>
