<svg height="430pt" viewBox="-65 0 430 430.08" width="430pt" xmlns="http://www.w3.org/2000/svg"><path d="m210.101562 430.078125h-119.75c-12.152343 0-22.042968-9.890625-22.042968-22.042969v-32.570312h-28.476563c-21.9375 0-39.7929685-17.851563-39.7929685-39.789063v-28.476562c0-65.957031 44.1132815-125.160157 107.2734375-143.960938 3.621094-1.085937 7.421875.980469 8.488281 4.59375 1.078125 3.613281-.980469 7.414063-4.59375 8.488281-57.414062 17.09375-97.515625 70.914063-97.515625 130.878907v28.476562c0 14.410157 11.726563 26.136719 26.140625 26.136719h35.300781c3.773438 0 6.828126 3.054688 6.828126 6.828125v39.394531c0 4.625 3.765624 8.390625 8.390624 8.390625h119.75c4.625 0 8.390626-3.765625 8.390626-8.390625v-39.394531c0-3.773437 3.054687-6.828125 6.828124-6.828125h35.300782c14.414062 0 26.140625-11.726562 26.140625-26.136719v-28.476562c0-59.960938-40.089844-113.773438-97.488281-130.875-3.613282-1.070313-5.671876-4.871094-4.59375-8.484375 1.074218-3.605469 4.867187-5.667969 8.488281-4.59375 63.148437 18.808594 107.246093 78 107.246093 143.953125v28.476562c0 21.9375-17.855468 39.789063-39.792968 39.789063h-28.472656v32.570312c0 12.152344-9.894532 22.042969-22.046876 22.042969zm0 0"/><path d="m259.453125 310.15625c0-22.429688-29.792969-52.222656-52.222656-52.222656-22.433594 0-40.621094 18.1875-40.621094 40.617187 0 22.433594 18.1875 40.621094 40.621094 40.621094 22.429687 0 52.222656-6.582031 52.222656-29.015625zm0 0"/><path d="m36.902344 310.15625c0-22.429688 29.792968-52.222656 52.226562-52.222656 22.429688 0 40.617188 18.1875 40.617188 40.617187 0 22.433594-18.1875 40.621094-40.617188 40.621094-22.433594 0-52.226562-6.582031-52.226562-29.015625zm0 0"/><path d="m109.265625 430.078125c-3.773437 0-6.824219-3.050781-6.824219-6.824219v-20.480468c0-3.773438 3.050782-6.828126 6.824219-6.828126s6.828125 3.054688 6.828125 6.828126v20.480468c0 3.773438-3.054688 6.824219-6.828125 6.824219zm0 0"/><path d="m136.574219 430.078125c-3.773438 0-6.828125-3.050781-6.828125-6.824219v-20.480468c0-3.773438 3.054687-6.828126 6.828125-6.828126 3.773437 0 6.824219 3.054688 6.824219 6.828126v20.480468c0 3.773438-3.050782 6.824219-6.824219 6.824219zm0 0"/><path d="m163.878906 430.078125c-3.773437 0-6.824218-3.050781-6.824218-6.824219v-20.480468c0-3.773438 3.050781-6.828126 6.824218-6.828126 3.773438 0 6.828125 3.054688 6.828125 6.828126v20.480468c0 3.773438-3.054687 6.824219-6.828125 6.824219zm0 0"/><path d="m191.1875 430.078125c-3.773438 0-6.828125-3.050781-6.828125-6.824219v-20.480468c0-3.773438 3.054687-6.828126 6.828125-6.828126s6.824219 3.054688 6.824219 6.828126v20.480468c0 3.773438-3.050781 6.824219-6.824219 6.824219zm0 0"/><path d="m146.691406 332.984375-19.367187 29.046875c-1.882813 2.824219.140625 6.609375 3.535156 6.609375h38.734375c3.394531 0 5.417969-3.785156 3.535156-6.609375l-19.367187-29.046875c-1.679688-2.523437-5.386719-2.523437-7.070313 0zm0 0"/><path d="m204.839844 238.933594h-109.226563c-3.773437 0-6.828125-3.054688-6.828125-6.828125 0-3.773438 3.054688-6.824219 6.828125-6.824219h109.226563c3.773437 0 6.828125 3.050781 6.828125 6.824219 0 3.773437-3.054688 6.828125-6.828125 6.828125zm0 0"/><path d="m184.359375 238.933594h-68.265625c-3.773438 0-6.828125-3.054688-6.828125-6.828125v-81.917969c0-3.773438 3.054687-6.828125 6.828125-6.828125h68.265625c3.773437 0 6.828125 3.054687 6.828125 6.828125v81.917969c0 3.773437-3.054688 6.828125-6.828125 6.828125zm-61.4375-13.652344h54.613281v-68.269531h-54.613281zm0 0"/><path d="m150.226562 211.625c-3.773437 0-6.828124-3.050781-6.828124-6.824219v-47.789062c0-3.773438 3.054687-6.824219 6.828124-6.824219 3.773438 0 6.828126 3.050781 6.828126 6.824219v47.789062c0 3.773438-3.054688 6.824219-6.828126 6.824219zm0 0"/><path d="m225.320312 157.011719h-150.1875c-3.773437 0-6.824218-3.050781-6.824218-6.824219v-34.132812c0-3.773438 3.050781-6.828126 6.824218-6.828126h150.1875c3.773438 0 6.828126 3.054688 6.828126 6.828126v34.132812c0 3.773438-3.054688 6.824219-6.828126 6.824219zm-143.359374-13.652344h136.53125v-20.480469h-136.53125zm0 0"/><path d="m177.535156 122.878906h-54.613281c-3.773437 0-6.828125-3.050781-6.828125-6.824218v-81.921876c0-18.820312 15.3125-34.132812 34.132812-34.132812 18.820313 0 34.132813 15.3125 34.132813 34.132812v81.921876c0 3.773437-3.050781 6.824218-6.824219 6.824218zm-47.789062-13.652344h40.960937v-75.09375c0-11.292968-9.1875-20.480468-20.480469-20.480468-11.292968 0-20.480468 9.1875-20.480468 20.480468zm0 0"/><path d="m150.226562 40.960938h-20.480468c-3.773438 0-6.824219-3.054688-6.824219-6.828126 0-3.773437 3.050781-6.824218 6.824219-6.824218h20.480468c3.773438 0 6.828126 3.050781 6.828126 6.824218 0 3.773438-3.054688 6.828126-6.828126 6.828126zm0 0"/><path d="m150.226562 68.265625h-20.480468c-3.773438 0-6.824219-3.050781-6.824219-6.824219 0-3.773437 3.050781-6.828125 6.824219-6.828125h20.480468c3.773438 0 6.828126 3.054688 6.828126 6.828125 0 3.773438-3.054688 6.824219-6.828126 6.824219zm0 0"/><path d="m150.226562 95.574219h-20.480468c-3.773438 0-6.824219-3.054688-6.824219-6.828125 0-3.773438 3.050781-6.824219 6.824219-6.824219h20.480468c3.773438 0 6.828126 3.050781 6.828126 6.824219 0 3.773437-3.054688 6.828125-6.828126 6.828125zm0 0"/></svg>